Sinister 2012 DVDRip 400MB x264 AAC - ViZNU [P2PDL]

					
Genre: Horror | Mystery | Thriller 
Plot: A true-crime writer finds a cache of 8mm "snuff" films that suggest the murder he is currently
researching is the work of a serial killer whose career dates back to the 1960s.
Director: Scott Derrickson
Stars: Ethan Hawke, Juliet Rylance and James Ransone.
Rated: R for disturbing violent images and some terror. 
http://cinemahouse.in/movie/250/Sinister

General
Movie name                     : Sinister 2012
Format                         : MPEG-4
Format profile                 : Base Media
Codec ID                       : isom
File size                      : 402 MiB
Duration                       : 1h 45mn
Overall bit rate mode          : Variable
Overall bit rate               : 534 Kbps
Source                         : PAL.DVDR

Video
ID                             : 1
Format                         : AVC
Format/Info                    : Advanced Video Codec
Duration                       : 1h 45mn
Bit rate                       : 491 Kbps
Width                          : 720 pixels
Height                         : 304 pixels
Display aspect ratio           : 2.35:1
Frame rate mode                : Constant
Frame rate                     : 25.000 fps
Stream size                    : 369 MiB (92%)
Writing library                : x264

Audio
ID                             : 2
Format                         : AAC
Format/Info                    : Advanced Audio Codec
Codec ID                       : 40
Duration                       : 1h 45mn
Bit rate mode                  : Variable
Bit rate                       : 40.0 Kbps
Channel(s)                     : 2 channels
Channel positions              : Front: L R
Sampling rate                  : 44.1 KHz / 22.05 KHz
Stream size                    : 30.1 MiB (7%)

Subtitle                       : Yes (English)


Screens:
 
http://www.shotpix.com/images/03192170417739997555.png 
http://www.shotpix.com/images/79946259984924278526.png 
http://www.shotpix.com/images/07612240591877348260.png 
http://www.shotpix.com/images/77564724975584691458.png 
http://www.shotpix.com/images/05844217889099535241.png 
http://www.shotpix.com/images/61453386918931398921.png

----------------------------------------------------------------------------------------------------

Recommend to you to use latest version of VLC player. Install K-Lite Codec Pack or shark007 codecs
in case of any kind of problem in playback (For non-VLC Media Player users). Alternatively, install
Core AVC codecs, the fastest decoder that there is coupled with Community Center Codec Pack and play
on Windows Media Player Classic. Check sample to be sure. Enjoy!

Greets to: Vitamin_X, a2zRG, srkfan, staff members at ExtraTorrent, TPB,KAT, 1337x, PublicHD,
Ahashare, BTScene, TorrentMafia, P2PDL, and all others.

Encoder Notes: Looking For Early Access To Anything You Can Provide DVDScr, R5, DVDR, BluRay, Direct
Audio, Early Music Releases, Seedboxes, Dedicated Servers anything u can provide, Advance / Promo CDs/
DVDs. If You Got anything to offer contact me at "prg@hush.com".

Facebook Fan Page: www . facebook . com / p2pdl